<?xml version="1.0" encoding="utf-8"?>
<svg id="master-artboard" viewBox="0 0 130 130" version="1.1" xmlns="http://www.w3.org/2000/svg" x="0px" y="0px" style="enable-background:new 0 0 1400 980;" width="130px" height="130px"><rect id="ee-background" x="0" y="0" width="130" height="130" style="fill: white; fill-opacity: 0; pointer-events: none;"/><g transform="matrix(1, 0, 0, 1, 12.80691146850586, 16.649006843566895)"><g transform="rotate(0 50 50)">
  <path d="M 50 24 H 50 A 3 6 0 0 1 53 30 V 30 A 3 6 0 0 1 50 36 H 50 A 3 6 0 0 1 47 30 V 30 A 3 6 0 0 1 50 24 Z" fill="#525252">
    <animate attributeName="opacity" values="1;0" keyTimes="0;1" dur="1.9607843137254901s" begin="-1.7973856209150327s" repeatCount="indefinite"/>
  </path>
</g><g transform="rotate(30 50 50)">
  <path d="M 50 24 H 50 A 3 6 0 0 1 53 30 V 30 A 3 6 0 0 1 50 36 H 50 A 3 6 0 0 1 47 30 V 30 A 3 6 0 0 1 50 24 Z" fill="#525252">
    <animate attributeName="opacity" values="1;0" keyTimes="0;1" dur="1.9607843137254901s" begin="-1.6339869281045751s" repeatCount="indefinite"/>
  </path>
</g><g transform="rotate(60 50 50)">
  <path d="M 50 24 H 50 A 3 6 0 0 1 53 30 V 30 A 3 6 0 0 1 50 36 H 50 A 3 6 0 0 1 47 30 V 30 A 3 6 0 0 1 50 24 Z" fill="#525252">
    <animate attributeName="opacity" values="1;0" keyTimes="0;1" dur="1.9607843137254901s" begin="-1.4705882352941175s" repeatCount="indefinite"/>
  </path>
</g><g transform="rotate(90 50 50)">
  <path d="M 50 24 H 50 A 3 6 0 0 1 53 30 V 30 A 3 6 0 0 1 50 36 H 50 A 3 6 0 0 1 47 30 V 30 A 3 6 0 0 1 50 24 Z" fill="#525252">
    <animate attributeName="opacity" values="1;0" keyTimes="0;1" dur="1.9607843137254901s" begin="-1.3071895424836601s" repeatCount="indefinite"/>
  </path>
</g><g transform="rotate(120 50 50)">
  <path d="M 50 24 H 50 A 3 6 0 0 1 53 30 V 30 A 3 6 0 0 1 50 36 H 50 A 3 6 0 0 1 47 30 V 30 A 3 6 0 0 1 50 24 Z" fill="#525252">
    <animate attributeName="opacity" values="1;0" keyTimes="0;1" dur="1.9607843137254901s" begin="-1.1437908496732025s" repeatCount="indefinite"/>
  </path>
</g><g transform="rotate(150 50 50)">
  <path d="M 50 24 H 50 A 3 6 0 0 1 53 30 V 30 A 3 6 0 0 1 50 36 H 50 A 3 6 0 0 1 47 30 V 30 A 3 6 0 0 1 50 24 Z" fill="#525252">
    <animate attributeName="opacity" values="1;0" keyTimes="0;1" dur="1.9607843137254901s" begin="-0.9803921568627451s" repeatCount="indefinite"/>
  </path>
</g><g transform="rotate(180 50 50)">
  <path d="M 50 24 H 50 A 3 6 0 0 1 53 30 V 30 A 3 6 0 0 1 50 36 H 50 A 3 6 0 0 1 47 30 V 30 A 3 6 0 0 1 50 24 Z" fill="#525252">
    <animate attributeName="opacity" values="1;0" keyTimes="0;1" dur="1.9607843137254901s" begin="-0.8169934640522876s" repeatCount="indefinite"/>
  </path>
</g><g transform="rotate(210 50 50)">
  <path d="M 50 24 H 50 A 3 6 0 0 1 53 30 V 30 A 3 6 0 0 1 50 36 H 50 A 3 6 0 0 1 47 30 V 30 A 3 6 0 0 1 50 24 Z" fill="#525252">
    <animate attributeName="opacity" values="1;0" keyTimes="0;1" dur="1.9607843137254901s" begin="-0.6535947712418301s" repeatCount="indefinite"/>
  </path>
</g><g transform="rotate(240 50 50)">
  <path d="M 50 24 H 50 A 3 6 0 0 1 53 30 V 30 A 3 6 0 0 1 50 36 H 50 A 3 6 0 0 1 47 30 V 30 A 3 6 0 0 1 50 24 Z" fill="#525252">
    <animate attributeName="opacity" values="1;0" keyTimes="0;1" dur="1.9607843137254901s" begin="-0.49019607843137253s" repeatCount="indefinite"/>
  </path>
</g><g transform="rotate(270 50 50)">
  <path d="M 50 24 H 50 A 3 6 0 0 1 53 30 V 30 A 3 6 0 0 1 50 36 H 50 A 3 6 0 0 1 47 30 V 30 A 3 6 0 0 1 50 24 Z" fill="#525252">
    <animate attributeName="opacity" values="1;0" keyTimes="0;1" dur="1.9607843137254901s" begin="-0.32679738562091504s" repeatCount="indefinite"/>
  </path>
</g><g transform="rotate(300 50 50)">
  <path d="M 50 24 H 50 A 3 6 0 0 1 53 30 V 30 A 3 6 0 0 1 50 36 H 50 A 3 6 0 0 1 47 30 V 30 A 3 6 0 0 1 50 24 Z" fill="#525252">
    <animate attributeName="opacity" values="1;0" keyTimes="0;1" dur="1.9607843137254901s" begin="-0.16339869281045752s" repeatCount="indefinite"/>
  </path>
</g><g transform="rotate(330 50 50)">
  <path d="M 50 24 H 50 A 3 6 0 0 1 53 30 V 30 A 3 6 0 0 1 50 36 H 50 A 3 6 0 0 1 47 30 V 30 A 3 6 0 0 1 50 24 Z" fill="#525252">
    <animate attributeName="opacity" values="1;0" keyTimes="0;1" dur="1.9607843137254901s" begin="0s" repeatCount="indefinite"/>
  </path>
</g></g></svg>